<svg width="711" height="270" viewBox="0 0 711 270" fill="none" xmlns="http://www.w3.org/2000/svg">
<path d="M336.765 69.5789L345.172 79.7682C337.551 82.9575 330.916 87.3055 325.445 92.5455L283.777 55.9335L269.177 84.0775L269.748 57.1842L204.579 78.7068L206.243 113.792L217.331 110.778L218.981 128.559C206.324 122.986 191.113 123.259 176.985 129.41C172.808 131.252 168.896 133.547 165.289 136.203C167.737 125.342 167.157 114.663 163.041 105.19C158.18 94.0015 149.631 84.7842 139.139 79.0309C131.784 74.2002 123.013 71.2255 113.824 70.2909C91.3 66.5655 64.2293 70.9162 37.5973 82.5442C27.8 86.8215 18.656 91.6949 10.4187 97.0322L0 103.78L6.288 114.363L25.792 147.194C25.792 147.194 31.788 157.283 31.816 157.268L42.392 151.979L43.8613 151.244L92.3427 259.232L97.0027 269.611L107.863 266.019L134.116 257.331L145.613 253.528L142.573 241.852L128.635 188.346C132.653 185.344 136.391 182.146 139.837 178.8C139.075 185.23 139.467 191.703 141.213 197.898C144.864 210.855 153.364 221.048 165.152 226.599C177.884 232.596 193.425 232.451 207.791 226.2C215.003 223.04 221.421 218.529 226.837 213.132L228.817 234.455L274.765 227.21L274.704 185.892L370.736 232.491V186.406C374.616 186.052 378.543 185.4 382.492 184.406C393.083 181.736 402.101 178.114 410.14 173.216L406.107 197.975L457.883 205.619L460.745 186.892L474.271 211.8L482.519 195.75L485.535 221.919L544.252 231.688L541.135 211.919C549.161 212.74 557.641 211.592 565.82 208.419C567.781 207.652 569.679 206.774 571.525 205.814L569.163 226.923L608.239 231.996L608.557 248.05L649.273 260.463L702.34 99.6802L647.093 86.8242L641.848 108.546L637 84.5748L572.087 70.9428L572.561 107.098L582.337 109.176L581.607 115.723C581.509 115.672 581.421 115.618 581.325 115.568C569.227 109.256 554.197 108.776 540.029 114.272C535.304 116.135 530.9 118.598 526.876 121.518L517.124 59.6829L473.949 60.1349L472.741 67.2495L427.32 67.7229L422.12 99.6495L418.347 95.0322C407.337 81.5695 391.384 74.2642 373.707 74.0762L412.268 52.9109L385.375 12.9535L336.765 69.5789ZM408.649 122.775L417.704 113.018L420.42 110.09L417.123 130.331L408.649 122.775ZM295.979 139.752L308.316 127.612C307.788 133.156 308.065 138.91 309.227 144.764L295.979 139.752Z" fill="url(#paint0_linear)"/>
<path d="M424.777 117.709L416.283 110.065L425.358 100.401L428.081 97.5026L424.777 117.709ZM360.127 120.987C356.862 115.015 357.553 107.391 362.405 102.089C367.09 96.9706 374.277 95.5266 380.381 97.888L360.127 120.987ZM303.366 125.865L315.73 113.855C315.201 119.395 315.479 125.149 316.642 131.016L303.366 125.865ZM121.513 136.501C119.615 130.213 115.523 116.649 115.523 116.649C115.545 116.723 114.697 113.728 113.745 110.363C117.489 109.705 121.071 110.051 124.017 111.481C125.655 112.276 128.498 114.129 129.118 117.605C130.513 125.408 127.813 130.953 121.513 136.501V136.501ZM655.249 76.604L649.993 98.2693L645.134 74.248L580.078 59.9373L580.555 96.0986L590.353 98.2786L589.618 104.819C589.523 104.767 589.433 104.709 589.337 104.659C577.213 98.2226 562.149 97.584 547.951 102.933C543.215 104.745 538.802 107.163 534.77 110.041L524.997 48.1053H481.726L480.515 55.208H434.995L429.785 87.0786L426.001 82.424C414.969 68.8453 398.981 61.3733 381.266 61.0013L419.91 40.2373L392.958 -2.55715e-05L344.242 56.1186L352.669 66.396C345.03 69.5053 338.381 73.7839 332.898 78.9653L291.139 41.9213L276.507 69.912L277.079 43.024L211.769 63.8666L213.434 98.9693L224.547 96.0706L226.202 113.869C213.517 108.164 198.273 108.279 184.113 114.28C179.927 116.08 176.006 118.335 172.391 120.953C174.846 110.117 174.265 99.432 170.138 89.916C165.267 78.6773 156.698 69.3706 146.183 63.5079C138.813 58.6013 130.025 55.5359 120.815 54.5026C98.2421 50.5426 71.1115 54.612 44.4208 65.9613C34.6021 70.136 25.4381 74.9146 17.1821 80.164L6.74213 86.8053L13.0435 97.4546L32.5914 130.487C32.5914 130.487 38.5981 140.639 38.6275 140.625L49.2261 135.445L50.6994 134.727L99.2861 243.22L103.957 253.648L114.839 250.169L141.151 241.756L152.673 238.072L149.626 226.367L135.658 172.713C139.685 169.753 143.43 166.593 146.886 163.284C146.119 169.705 146.513 176.184 148.263 182.397C151.921 195.392 160.441 205.673 172.254 211.348C185.014 217.477 200.589 217.493 214.986 211.393C222.214 208.309 228.646 203.865 234.074 198.524L236.058 219.868L282.107 213.103L282.046 171.784L378.287 219.385V173.299C382.175 172.987 386.113 172.376 390.069 171.421C400.683 168.864 409.722 165.335 417.777 160.521L413.737 185.237L465.625 193.423L468.494 174.727L482.049 199.775L490.314 183.811L493.337 210.012L552.183 220.395L549.058 200.592C557.103 201.497 565.601 200.437 573.798 197.349C575.763 196.604 577.666 195.744 579.517 194.801L577.149 215.889L616.309 221.369L616.629 237.427L657.435 250.265L710.615 90.0346L655.249 76.604Z" fill="#FBC707"/>
<path d="M649.774 235.369L627.197 228.618L625.229 145.397L613.869 209.601L589.233 205.683L590.988 187.173C607.073 173.586 615.616 152.158 610.95 132.73C608.893 124.114 604.481 116.635 598.218 110.918L600.286 89.1195L590.988 86.6355L591.622 74.9928L634.061 83.5235L648.33 151.198L662.949 90.5301L695.234 97.6755L649.774 235.369ZM569.981 187.263C562.086 190.238 554.294 190.851 547.305 189.477C542.464 188.525 538.012 186.615 534.182 183.859C528.06 179.453 523.528 172.901 521.565 164.655C519.214 154.795 521.365 144.229 526.665 135.037C529.302 130.465 532.718 126.237 536.752 122.605C541.226 118.575 546.453 115.274 552.221 113.066C565.685 107.994 578.921 109.766 588.308 116.485C591.712 118.921 594.606 122.006 596.822 125.654C598.53 128.466 599.845 131.605 600.666 135.043C603.509 146.882 600.106 159.594 592.632 169.841C589.448 174.205 585.528 178.122 581.029 181.331C577.646 183.745 573.942 185.761 569.981 187.263V187.263ZM537.431 204.959L504.92 199.994L496.282 142.697L484.056 174.31L465.733 134.81H465.535L458.281 180.569L427.77 175.262L432.049 149.726C433.198 148.651 434.34 147.55 435.46 146.394L445.33 136.209L435.756 127.591L445.94 66.8035H476.764L484.449 108.875L493.109 60.0995H515.129L524.278 119.533C512.63 132.794 506.997 150.598 510.886 166.917C513.89 179.533 521.668 189.734 532.785 195.641C533.912 196.239 535.072 196.77 536.246 197.267L537.431 204.959ZM387.143 159.358C384.139 160.082 381.185 160.565 378.288 160.846C356.377 162.982 338.008 152.901 331.01 136.591C330.176 134.643 329.5 132.607 329.001 130.493C325.762 116.735 328.509 104.463 335.304 94.8435C337.269 92.0608 339.581 89.5075 342.178 87.1981C348.581 81.4981 356.752 77.3128 366.004 75.0821C386.901 70.0448 405.291 76.4315 416.525 90.2581L376.764 132.605C379.474 133.087 383.761 132.378 386.922 131.617C396.405 129.331 401.719 124.319 406.362 118.821L422.257 133.125L427.082 137.47C424.968 139.653 422.801 141.658 420.558 143.511C411.412 151.077 400.965 156.026 387.143 159.358V159.358ZM366.244 200.201L270.743 152.433L270.91 202.474L246.205 205.857L244.466 185.19C252.112 172.13 254.898 156.715 250.9 142.611C248.712 134.855 244.69 128.079 239.203 122.699L235.66 80.6101L224.547 83.5088L224.064 72.8795L263.752 61.0661L266.168 101.983L295.403 60.9115L323.974 88.1088L284.04 130.214L321.557 145.062C325.769 153.001 332.13 159.773 340.176 164.722C347.948 169.503 356.821 172.361 366.244 173.245V200.201ZM232.593 182.589C227.128 190.167 219.572 196.483 210.636 200.295C187.796 209.975 164.972 200.295 158.877 178.639C152.962 157.646 166.713 132.725 188.841 123.209C202.953 117.229 217.12 118.646 227.288 125.546C233.578 129.815 238.341 136.178 240.604 144.202C240.852 145.074 241.053 145.953 241.237 146.837C241.867 149.893 242.121 153.005 242.018 156.121C241.712 165.387 238.297 174.675 232.593 182.589V182.589ZM121.019 167.203L137.26 229.586L110.949 237.998L56.9369 117.39C54.0129 118.93 48.5915 121.518 43.5875 123.979L24.0395 90.9475C31.8382 85.9875 40.3475 81.5781 49.4208 77.7195C74.8928 66.8888 99.1515 63.6741 118.608 67.0888C125.465 67.8741 132.757 69.9195 139.105 74.1448C147.859 79.0621 154.542 86.0635 158.415 94.9981C167.818 116.685 152.106 148.015 121.019 167.203V167.203ZM316.642 131.017L303.366 125.866L315.73 113.855C315.201 119.394 315.48 125.149 316.642 131.017V131.017ZM390.881 17.8781L405.128 37.2381L364.382 57.4301L361.566 53.1661L390.881 17.8781ZM425.358 100.401L428.08 97.5021L424.777 117.709L416.284 110.065L425.358 100.401ZM655.249 76.6035L649.993 98.2688L645.134 74.2488L580.078 59.9381L580.556 96.0981L590.353 98.2795L589.618 104.818C589.524 104.767 589.433 104.71 589.337 104.659C577.213 98.2221 562.149 97.5848 547.952 102.934C543.216 104.746 538.802 107.163 534.77 110.041L524.997 48.1048H481.726L480.516 55.2075H434.996L429.785 87.0795L426.001 82.4235C414.969 68.8448 398.981 61.3728 381.266 61.0008L419.91 40.2381L392.958 0.000785898L344.242 56.1195L352.669 66.3955C345.03 69.5061 338.381 73.7848 332.898 78.9661L291.139 41.9208L276.507 69.9115L277.08 43.0248L211.769 63.8674L213.434 98.9701L224.547 96.0701L226.202 113.869C213.517 108.165 198.273 108.279 184.113 114.281C179.928 116.081 176.006 118.335 172.392 120.953C174.846 110.117 174.265 99.4328 170.138 89.9155C165.268 78.6768 156.698 69.3701 146.184 63.5075C138.813 58.6008 130.025 55.5355 120.816 54.5035C98.2422 50.5421 71.1115 54.6115 44.4208 65.9608C34.6022 70.1355 25.4382 74.9141 17.1822 80.1648L6.74219 86.8048L13.0435 97.4541L32.5915 130.487C32.5915 130.487 38.5982 140.639 38.6275 140.625L49.2262 135.446L50.6995 134.726L99.2862 243.221L103.957 253.647L114.84 250.169L141.151 241.757L152.673 238.073L149.626 226.366L135.658 172.713C139.685 169.753 143.43 166.593 146.886 163.285C146.12 169.705 146.513 176.183 148.264 182.397C151.921 195.391 160.441 205.674 172.254 211.347C185.014 217.478 200.589 217.494 214.986 211.393C222.214 208.309 228.646 203.866 234.074 198.523L236.058 219.869L282.108 213.103L282.046 171.785L378.288 219.385V173.299C382.176 172.987 386.113 172.375 390.069 171.422C400.684 168.863 409.722 165.335 417.777 160.521L413.737 185.237L465.625 193.422L468.494 174.726L482.049 199.774L490.314 183.81L493.337 210.011L552.184 220.394L549.058 200.591C557.104 201.497 565.601 200.437 573.798 197.349C575.764 196.603 577.666 195.743 579.517 194.802L577.149 215.889L616.309 221.369L616.629 237.426L657.436 250.265L710.615 90.0355L655.249 76.6035Z" fill="#1D4694"/>
<path d="M581.561 127.943C581.817 128.915 581.947 129.928 581.905 130.972C581.647 137.278 575.698 142.156 568.613 141.868C561.529 141.582 555.993 136.236 556.249 129.931C556.489 124.008 561.754 119.346 568.263 119.04C567.014 118.771 565.726 118.591 564.397 118.538C552.559 118.056 542.875 126.45 542.45 136.908C541.999 148.04 550.97 157.19 562.629 157.664C574.467 158.144 584.151 149.751 584.603 138.619C584.761 134.758 583.629 131.078 581.561 127.943Z" fill="#1D4694"/>
<path d="M222.135 140.688C222.135 146.999 216.387 152.115 209.296 152.115C202.206 152.115 196.458 146.999 196.458 140.688C196.458 134.76 201.529 129.888 208.021 129.319C206.763 129.102 205.468 128.974 204.137 128.974C192.29 128.974 182.955 137.752 182.955 148.219C182.955 159.362 192.29 168.139 203.959 168.139C215.805 168.139 225.143 159.362 225.143 148.219C225.143 144.355 223.863 140.723 221.668 137.675C221.964 138.636 222.135 139.644 222.135 140.688Z" fill="#1D4694"/>
<path d="M360.667 119.365C357.724 114.02 358.324 107.184 362.66 102.42C366.847 97.8182 373.284 96.5062 378.763 98.6076L360.667 119.365ZM388.801 95.4916C379.523 87.0462 365.152 87.7222 356.707 97.0022C348.263 106.281 348.939 120.652 358.217 129.097C358.989 129.798 359.805 130.414 360.641 130.99L390.411 97.1116C389.905 96.5516 389.371 96.0102 388.801 95.4916ZM362.66 102.42C358.324 107.184 357.724 114.02 360.667 119.365L378.763 98.6076C373.284 96.5062 366.847 97.8182 362.66 102.42ZM360.667 119.365C357.724 114.02 358.324 107.184 362.66 102.42C366.847 97.8182 373.284 96.5062 378.763 98.6076L360.667 119.365Z" fill="#1D4694"/>
<path d="M121.193 135.203C119.393 129.283 115.51 116.512 115.51 116.512C115.53 116.581 114.725 113.761 113.821 110.592C117.347 109.967 120.722 110.285 123.499 111.625C125.046 112.372 127.727 114.113 128.319 117.385C129.649 124.735 127.117 129.963 121.193 135.203ZM137.749 115.68C135.437 102.893 118.795 95.7375 102.161 104.657L106.341 119.3L112.922 140.944L115.923 150.816C128.39 142.893 140.951 133.383 137.749 115.68Z" fill="#1D4694"/>
<defs>
<linearGradient id="paint0_linear" x1="351.171" y1="9.68973" x2="351.171" y2="272.733" gradientUnits="userSpaceOnUse">
<stop stop-color="#329EC7"/>
<stop offset="1" stop-color="#BFE3EC"/>
</linearGradient>
</defs>
</svg>
